<?xml version="1.0" standalone="no"?><!DOCTYPE svg PUBLIC "-//W3C//DTD SVG 1.1//EN" "http://www.w3.org/Graphics/SVG/1.1/DTD/svg11.dtd"><svg t="1631258441132" class="icon" viewBox="0 0 1024 1024" version="1.1" xmlns="http://www.w3.org/2000/svg" p-id="9783" width="32" height="32" xmlns:xlink="http://www.w3.org/1999/xlink"><defs><style type="text/css"></style></defs><path d="M466.596226 983.426415C373.856604 884.890566 207.698113 650.143396 160.362264 551.607547c-27.049057-57.962264-29.94717-72.45283-29.94717-160.362264 0-85.011321 2.898113-103.366038 26.083019-152.633962C193.207547 161.328302 269.524528 84.045283 346.807547 45.403774c58.928302-28.981132 69.554717-30.913208 165.192453-30.913208 88.875472 0 108.196226 2.898113 154.566038 25.116981 174.85283 82.113208 269.524528 280.150943 218.324528 456.935849-28.015094 94.671698-327.486792 515.864151-369.026415 516.830189-10.626415 0.966038-32.845283-13.524528-49.267925-29.94717z m119.78868-471.426415c59.89434-35.743396 82.113208-129.449057 45.403773-191.275472-21.25283-36.709434-79.215094-69.554717-119.788679-69.554717-50.233962 0-111.09434 40.573585-129.449057 86.943397-19.320755 49.267925-19.320755 62.792453 3.864151 113.026415 33.811321 75.350943 129.449057 104.332075 199.969812 60.860377z" p-id="9784" fill="#e45327"></path></svg>