<?xml version="1.0" standalone="no"?><!DOCTYPE svg PUBLIC "-//W3C//DTD SVG 1.1//EN" "http://www.w3.org/Graphics/SVG/1.1/DTD/svg11.dtd"><svg t="1631502874064" class="icon" viewBox="0 0 1024 1024" version="1.1" xmlns="http://www.w3.org/2000/svg" p-id="44783" id="mx_n_1631502874066" data-spm-anchor-id="a313x.7781069.0.i33" xmlns:xlink="http://www.w3.org/1999/xlink" width="32" height="32"><defs><style type="text/css"></style></defs><path d="M342.136655 970.7572a178.934648 53.214053 0 1 0 357.869297 0 178.934648 53.214053 0 1 0-357.869297 0Z" fill="#f4ea2a" p-id="44784" data-spm-anchor-id="a313x.7781069.0.i30" class=""></path><path d="M519.474243 995.096401a15.459545 15.459545 0 0 1-13.926367-8.815774c-67.012655-140.669081-134.472487-243.647536-188.644776-326.311383-37.115684-56.663703-69.120775-105.533752-92.310092-152.80674a331.677506 331.677506 0 0 1-22.806022-54.427819l-2.235885-7.282595a328.163973 328.163973 0 0 1-9.454597-38.07392 298.522532 298.522532 0 0 1-5.621653-56.088762c0-184.747948 150.315326-335.063274 335.063274-335.063274s335.063274 150.315326 335.063274 335.063274c0 21.975551-2.10812 43.120631-6.452124 64.457358l-1.724825 6.771536a372.562253 372.562253 0 0 1-25.936261 73.592544c-21.464492 45.931457-51.616992 91.926797-89.818678 150.187561-54.363936 82.983259-122.015415 186.217244-197.205019 340.109985a15.58731 15.58731 0 0 1-13.926367 8.751891l-0.063882-0.063882z" fill="#f4ea2a" p-id="44785" data-spm-anchor-id="a313x.7781069.0.i29" class="selected"></path><path d="M519.538125 31.685679a319.475965 319.475965 0 0 1 319.539847 319.539847c0 21.592257-2.172002 41.842983-6.196594 61.327119-0.702707 3.641298-1.85259 7.027066-2.683062 10.604481-3.066356 12.520954-6.963183 24.914142-11.498835 37.115684a304.208067 304.208067 0 0 1-12.201541 28.938735c-51.489228 110.324933-159.194982 228.571286-286.959815 490.233664-112.688583-236.62047-224.291164-363.554832-281.01875-479.245888a311.746192 311.746192 0 0 1-21.975551-52.191935l-2.10812-6.899301a299.097474 299.097474 0 0 1-9.00742-36.349095 283.765694 283.765694 0 0 1-5.430006-53.533464A319.603729 319.603729 0 0 1 519.538125 31.685679m0-30.982972a350.906113 350.906113 0 0 0-350.522819 350.522819c0 18.78143 1.916472 38.137803 5.941065 59.282882 2.299767 13.798602 6.06883 27.022262 9.710127 39.415451l2.491414 8.049184c6.260477 19.484137 14.373544 38.840509 23.955907 56.855351 23.189317 47.272988 55.449937 96.590214 92.885033 153.701094 53.916759 82.280552 120.993297 184.684066 187.558775 324.331028 5.110593 10.732246 15.970604 17.631547 27.852733 17.695429h0.127765a31.046854 31.046854 0 0 0 27.852734-17.376017c74.742427-153.06227 142.138377-255.849078 196.310665-338.449042 38.521097-58.771823 68.929127-105.150457 90.904679-152.295681 4.855064-10.029539 9.199068-20.506256 13.22366-31.430149 4.982828-13.351425 9.26295-27.022262 12.520954-40.437569l0.958236-3.70518c0.766589-2.746944 1.469296-5.493888 2.044237-8.304715 4.535652-22.039434 6.771536-44.14275 6.771536-67.332066A350.906113 350.906113 0 0 0 519.538125 0.702707z" fill="#f4ea2a" p-id="44786" data-spm-anchor-id="a313x.7781069.0.i31" class=""></path><path d="M520.432479 354.227999m-229.976699 0a229.976699 229.976699 0 1 0 459.953398 0 229.976699 229.976699 0 1 0-459.953398 0Z" fill="#ffffff" p-id="44787" data-spm-anchor-id="a313x.7781069.0.i28" class=""></path></svg>