<?xml version="1.0" standalone="no"?><!DOCTYPE svg PUBLIC "-//W3C//DTD SVG 1.1//EN" "http://www.w3.org/Graphics/SVG/1.1/DTD/svg11.dtd"><svg t="1631256844809" class="icon" viewBox="0 0 1024 1024" version="1.1" xmlns="http://www.w3.org/2000/svg" p-id="1635" xmlns:xlink="http://www.w3.org/1999/xlink" width="200" height="200"><defs><style type="text/css"></style></defs><path d="M243.073 676.639v0.031l5.982 6.327c1.499 1.589 2.93 3.179 4.487 4.737h0.064L512.091 960l258.36-272.266c0.312-0.306 0.626-0.651 0.938-0.965l4.61-4.896 4.929-5.203v-0.031l0.184-0.218c62.157-67.736 96.389-155.429 96.389-246.92C877.501 227.971 713.53 64 512.031 64c-201.567 0-365.532 163.971-365.532 365.501 0 91.427 34.226 179.121 96.383 246.92l0.191 0.218z" fill="#2577FF" p-id="1636"></path><path d="M565.004 655.249c105.237 0 190.587-85.318 190.587-190.588 0-105.243-85.35-190.593-190.587-190.593-105.307 0-190.657 85.35-190.657 190.593 0 105.27 85.351 190.588 190.657 190.588z" fill="#030504" p-id="1637"></path><path d="M512.031 619.934c105.239 0 190.588-85.319 190.588-190.587 0-105.243-85.35-190.592-190.588-190.592-105.307 0-190.657 85.35-190.657 190.592 0 105.268 85.351 190.587 190.657 190.587z" fill="#EEEEEE" p-id="1638"></path></svg>